<svg xmlns="http://www.w3.org/2000/svg" width="1730" height="315" fill="none"><path stroke="#CFCFCF" stroke-width="10" d="M0 23h1730"/><path stroke="#fff" stroke-width="10" d="M0 23h630"/><circle cx="630" cy="28" r="28" fill="#fff"/><path d="M1175.84 186.375c-1.21 0-2.38.484-3.24 1.345a4.564 4.564 0 00-1.35 3.249v39.17l-66.83-40a10.072 10.072 0 00-5.12-1.468c-1.8-.022-3.58.441-5.15 1.342-3.45 1.952-5.59 5.73-5.59 9.856v83.262c0 4.126 2.14 7.904 5.59 9.856 1.57.9 3.35 1.363 5.15 1.34 1.81-.022 3.58-.53 5.12-1.469l66.83-39.997v39.17c0 1.219.48 2.387 1.35 3.249a4.588 4.588 0 006.49 0 4.606 4.606 0 001.35-3.249V190.969c0-1.219-.49-2.387-1.35-3.249a4.594 4.594 0 00-3.25-1.345zm-621.684 0c1.219 0 2.387.484 3.249 1.345a4.597 4.597 0 011.345 3.249v39.17l66.83-40a10.087 10.087 0 0110.27-.126c3.446 1.952 5.588 5.73 5.588 9.856v83.262c0 4.126-2.142 7.904-5.588 9.856a10.084 10.084 0 01-10.27-.129l-66.83-39.997v39.17a4.597 4.597 0 01-1.345 3.249 4.597 4.597 0 01-6.497 0 4.594 4.594 0 01-1.346-3.249V190.969a4.594 4.594 0 014.594-4.594z" fill="#fff"/></svg>