<svg width="124" height="82" fill="none" xmlns="http://www.w3.org/2000/svg"><path d="M26.16 44.072c-1.408 0-2.4-.56-2.976-1.68-.576-1.088-.864-2.368-.864-3.84a14.6 14.6 0 01.528-3.888c.384-1.28.832-2.256 1.344-2.928-.864 1.024-1.936 2.192-3.216 3.504a44.332 44.332 0 01-4.224 3.792A26.34 26.34 0 0112 42.056c-1.632.8-3.248 1.2-4.848 1.2-2.112 0-3.696-.672-4.752-2.016C1.376 39.896.864 38.056.864 35.72c0-1.824.304-3.776.912-5.856.64-2.112 1.568-4.256 2.784-6.432a35.587 35.587 0 011.92-3.12 31.033 31.033 0 012.352-2.976 31.347 31.347 0 01-2.88-1.584c-.928-.608-1.68-1.328-2.256-2.16-.576-.832-.864-1.824-.864-2.976 0-.608.128-1.152.384-1.632.288-.512.592-.768.912-.768.288 0 .432.176.432.528 0 .224-.064.464-.192.72-.16.416-.24.8-.24 1.152 0 .864.304 1.68.912 2.448a9.178 9.178 0 002.208 1.92c.864.544 1.664.976 2.4 1.296a53.718 53.718 0 016.72-6.192 33.44 33.44 0 017.92-4.608c2.816-1.152 5.776-1.728 8.88-1.728 2.592 0 4.624.576 6.096 1.728 1.472 1.12 2.208 2.576 2.208 4.368 0 1.6-.464 2.976-1.392 4.128-.896 1.12-2.08 2.064-3.552 2.832a24.383 24.383 0 01-4.8 1.776 40.76 40.76 0 01-5.04.912c-1.664.16-3.12.24-4.368.24-1.824 0-3.6-.112-5.328-.336a35.954 35.954 0 01-5.088-1.056 103.394 103.394 0 00-2.736 4.128 70.244 70.244 0 00-2.784 4.896 38.458 38.458 0 00-2.16 5.088c-.544 1.664-.816 3.216-.816 4.656 0 1.568.368 2.752 1.104 3.552.736.768 1.728 1.152 2.976 1.152 1.504 0 3.088-.448 4.752-1.344 1.696-.928 3.392-2.128 5.088-3.6a52.734 52.734 0 004.848-4.8 63.099 63.099 0 004.128-5.136c1.216-1.696 2.176-3.2 2.88-4.512.544-1.024 1.072-1.744 1.584-2.16.512-.448.944-.672 1.296-.672.352 0 .624.144.816.432.192.256.288.608.288 1.056 0 .896-.4 1.792-1.2 2.688-1.088 1.248-2.144 2.768-3.168 4.56a29.014 29.014 0 00-2.496 5.568c-.64 1.92-.96 3.728-.96 5.424 0 1.184.176 2.032.528 2.544.384.512.88.768 1.488.768.928 0 1.856-.32 2.784-.96.96-.608 1.872-1.44 2.736-2.496a25.93 25.93 0 002.4-3.504 37.07 37.07 0 001.92-3.936c.16 0 .288.016.384.048.128.032.192.16.192.384a37.61 37.61 0 01-1.968 4.176 23.263 23.263 0 01-2.544 3.888c-.96 1.152-2.032 2.08-3.216 2.784a7.469 7.469 0 01-3.888 1.056zm-4.272-25.488c1.28 0 2.704-.064 4.272-.192 1.568-.16 3.12-.432 4.656-.816a18.301 18.301 0 004.32-1.632c1.312-.704 2.368-1.6 3.168-2.688.8-1.088 1.2-2.416 1.2-3.984 0-1.408-.592-2.48-1.776-3.216-1.152-.736-2.624-1.104-4.416-1.104-2.976 0-5.696.592-8.16 1.776a26.812 26.812 0 00-6.72 4.56 69.56 69.56 0 00-5.76 6.096c1.408.416 2.848.72 4.32.912 1.504.192 3.136.288 4.896.288zm84.272 62.488c-1.408 0-2.4-.56-2.976-1.68-.576-1.088-.864-2.368-.864-3.84a14.6 14.6 0 01.528-3.888c.384-1.28.832-2.256 1.344-2.928-.864 1.024-1.936 2.192-3.216 3.504a44.332 44.332 0 01-4.224 3.792A26.34 26.34 0 0192 79.056c-1.632.8-3.248 1.2-4.848 1.2-2.112 0-3.696-.672-4.752-2.016-1.024-1.344-1.536-3.184-1.536-5.52 0-1.824.304-3.776.912-5.856.64-2.112 1.568-4.256 2.784-6.432a35.587 35.587 0 011.92-3.12 31.033 31.033 0 012.352-2.976 31.347 31.347 0 01-2.88-1.584c-.928-.608-1.68-1.328-2.256-2.16-.576-.832-.864-1.824-.864-2.976 0-.608.128-1.152.384-1.632.288-.512.592-.768.912-.768.288 0 .432.176.432.528 0 .224-.064.464-.192.72-.16.416-.24.8-.24 1.152 0 .864.304 1.68.912 2.448a9.178 9.178 0 002.208 1.92c.864.544 1.664.976 2.4 1.296a53.718 53.718 0 016.72-6.192 33.44 33.44 0 017.92-4.608c2.816-1.152 5.776-1.728 8.88-1.728 2.592 0 4.624.576 6.096 1.728 1.472 1.12 2.208 2.576 2.208 4.368 0 1.6-.464 2.976-1.392 4.128-.896 1.12-2.08 2.064-3.552 2.832a24.383 24.383 0 01-4.8 1.776 40.76 40.76 0 01-5.04.912c-1.664.16-3.12.24-4.368.24-1.824 0-3.6-.112-5.328-.336a35.954 35.954 0 01-5.088-1.056 103.394 103.394 0 00-2.736 4.128 70.244 70.244 0 00-2.784 4.896 38.458 38.458 0 00-2.16 5.088c-.544 1.664-.816 3.216-.816 4.656 0 1.568.368 2.752 1.104 3.552.736.768 1.728 1.152 2.976 1.152 1.504 0 3.088-.448 4.752-1.344 1.696-.928 3.392-2.128 5.088-3.6a52.734 52.734 0 004.848-4.8 63.099 63.099 0 004.128-5.136c1.216-1.696 2.176-3.2 2.88-4.512.544-1.024 1.072-1.744 1.584-2.16.512-.448.944-.672 1.296-.672.352 0 .624.144.816.432.192.256.288.608.288 1.056 0 .896-.4 1.792-1.2 2.688-1.088 1.248-2.144 2.768-3.168 4.56a29.014 29.014 0 00-2.496 5.568c-.64 1.92-.96 3.728-.96 5.424 0 1.184.176 2.032.528 2.544.384.512.88.768 1.488.768.928 0 1.856-.32 2.784-.96.96-.608 1.872-1.44 2.736-2.496a25.93 25.93 0 002.4-3.504 37.07 37.07 0 001.92-3.936c.16 0 .288.016.384.048.128.032.192.16.192.384a37.61 37.61 0 01-1.968 4.176 23.263 23.263 0 01-2.544 3.888c-.96 1.152-2.032 2.08-3.216 2.784a7.469 7.469 0 01-3.888 1.056zm-4.272-25.488c1.28 0 2.704-.064 4.272-.192 1.568-.16 3.12-.432 4.656-.816a18.301 18.301 0 004.32-1.632c1.312-.704 2.368-1.6 3.168-2.688.8-1.088 1.2-2.416 1.2-3.984 0-1.408-.592-2.48-1.776-3.216-1.152-.736-2.624-1.104-4.416-1.104-2.976 0-5.696.592-8.16 1.776a26.812 26.812 0 00-6.72 4.56 69.56 69.56 0 00-5.76 6.096c1.408.416 2.848.72 4.32.912 1.504.192 3.136.288 4.896.288zm-46.05-2.414c-1.473 0-2.695-.234-3.666-.702-.97-.45-1.699-1.049-2.184-1.794a4.55 4.55 0 01-.702-2.418c0-.953.286-1.898.858-2.834.572-.953 1.421-1.768 2.548-2.444 1.144-.693 2.54-1.127 4.186-1.3a3.534 3.534 0 01-.546-1.118 4.543 4.543 0 01-.182-1.222c.017-.919.277-1.725.78-2.418a6.582 6.582 0 011.924-1.794 9.754 9.754 0 012.548-1.092c.901-.26 1.75-.39 2.548-.39.485 0 .98.07 1.482.208.503.121.927.347 1.274.676.347.33.52.797.52 1.404 0 .503-.156.953-.468 1.352-.312.399-.693.598-1.144.598-.33 0-.615-.121-.858-.364s-.364-.52-.364-.832c0-.364.113-.659.338-.884.243-.243.537-.364.884-.364.156 0 .33.052.52.156.208.104.338.208.39.312.017-.07.026-.165.026-.286 0-.468-.19-.797-.572-.988a2.695 2.695 0 00-1.222-.286c-.693 0-1.5.173-2.418.52-.919.33-1.811.875-2.678 1.638a6.928 6.928 0 00-.962 1.092 7.47 7.47 0 00-.832 1.456 3.717 3.717 0 00-.338 1.534c0 .399.07.745.208 1.04.26 0 .555-.009.884-.026a10.7 10.7 0 011.066-.052c.45 0 .806.095 1.066.286.26.19.39.407.39.65 0 .173-.104.338-.312.494-.208.156-.537.234-.988.234a3.337 3.337 0 01-1.56-.364c-.45-.26-.806-.52-1.066-.78-1.144.156-2.115.58-2.912 1.274a6.89 6.89 0 00-1.82 2.47c-.416.936-.624 1.872-.624 2.808 0 .745.139 1.439.416 2.08a3.562 3.562 0 001.326 1.534c.59.399 1.335.598 2.236.598.936 0 1.785-.173 2.548-.52a6.444 6.444 0 002.002-1.3c.555-.537.98-1.1 1.274-1.69.312-.607.468-1.17.468-1.69 0-.45-.165-.823-.494-1.118-.312-.312-.728-.537-1.248-.676a5.763 5.763 0 00-1.664-.234 6.61 6.61 0 00-1.82.26 3.863 3.863 0 00-1.508.754c-.416.33-.667.754-.754 1.274a.429.429 0 01-.026.13v.104c0 .381.139.763.416 1.144.295.364.745.702 1.352 1.014.156.07.234.2.234.39s-.087.243-.26.156c-.953-.503-1.655-1.049-2.106-1.638-.433-.607-.65-1.179-.65-1.716 0-.78.416-1.447 1.248-2.002.85-.572 2.054-.858 3.614-.858h4.602c.277 0 .685-.06 1.222-.182a11.063 11.063 0 001.69-.52 6.424 6.424 0 001.456-.832c.416-.33.624-.702.624-1.118 0-.225-.078-.468-.234-.728a.32.32 0 01-.052-.182c0-.104.043-.156.13-.156.07 0 .13.043.182.13.26.381.39.771.39 1.17 0 .468-.173.901-.52 1.3-.33.399-.78.754-1.352 1.066a7.865 7.865 0 01-1.924.676 8.73 8.73 0 01-2.132.208c.33.277.572.59.728.936.156.347.234.71.234 1.092 0 .641-.19 1.3-.572 1.976-.381.659-.919 1.274-1.612 1.846-.693.555-1.508 1.005-2.444 1.352-.919.347-1.933.52-3.042.52zm4.004-10.4c.572 0 .858-.113.858-.338 0-.087-.078-.173-.234-.26-.139-.104-.33-.165-.572-.182a3.591 3.591 0 00-.52-.026h-1.43c.433.537 1.066.806 1.898.806z" fill="#000"/></svg>